<svg version="1.1" id="Layer_1" xmlns="http://www.w3.org/2000/svg" xmlns:xlink="http://www.w3.org/1999/xlink" x="0px" y="0px"
	 width="100%" viewBox="0 0 512 512" enable-background="new 0 0 512 512" xml:space="preserve">
<path fill="#000000" opacity="0.000000" stroke="none"
	d="
M278.000000,513.000000 
	C185.355820,513.000000 93.211639,513.000000 1.033728,513.000000 
	C1.033728,342.397461 1.033728,171.794907 1.033728,1.096182 
	C171.560867,1.096182 342.121796,1.096182 512.841370,1.096182 
	C512.841370,171.666550 512.841370,342.333252 512.841370,513.000000 
	C434.794891,513.000000 356.647430,513.000000 278.000000,513.000000 
M273.687317,501.003998 
	C279.311218,500.628876 285.106537,500.995239 290.527405,499.741943 
	C307.932892,495.717743 325.536072,492.104797 342.445435,486.477478 
	C371.122955,476.933777 396.603424,461.162048 419.115265,441.127228 
	C437.394897,424.858948 453.525696,406.527405 466.188904,385.340485 
	C476.714294,367.730316 485.363770,349.369415 491.335114,329.684540 
	C496.362091,313.112640 499.776581,296.348175 501.147888,279.059875 
	C502.916168,256.767212 502.352966,234.640869 498.355072,212.634338 
	C493.477081,185.783356 484.400665,160.442245 470.887177,136.701828 
	C461.410431,120.053116 450.294281,104.642059 437.185791,90.630424 
	C419.805206,72.052383 400.546936,55.694572 378.011719,43.914326 
	C362.763031,35.943115 346.869080,28.734749 330.529114,23.461725 
	C315.675812,18.668467 299.877838,16.682192 284.410675,13.941717 
	C264.440918,10.403476 244.229004,11.141377 224.462524,14.441766 
	C206.738907,17.401056 189.132965,22.051153 172.064743,27.728071 
	C143.539795,37.215508 118.247246,52.980656 95.862976,72.895691 
	C77.580704,89.161217 61.449390,107.494980 48.794212,128.685837 
	C38.276154,146.298141 29.617746,164.657135 23.654465,184.345200 
	C18.634624,200.918442 15.219211,217.683121 13.850163,234.971588 
	C12.084834,257.264282 12.662170,279.388611 16.653906,301.395630 
	C21.524971,328.250549 30.609423,353.589813 44.128395,377.325287 
	C53.608395,393.969513 64.718636,409.385529 77.834221,423.394043 
	C95.222359,441.966003 114.720299,457.855316 136.930145,470.267120 
	C152.329193,478.872772 168.249161,486.605652 185.411148,490.899811 
	C200.635834,494.709259 216.062454,498.215698 231.612900,500.066833 
	C245.171280,501.680847 259.026794,500.798706 273.687317,501.003998 
z"/>
<path fill="#363636" opacity="1.000000" stroke="none" 
	d="
M273.219177,501.011719 
	C259.026794,500.798706 245.171280,501.680847 231.612900,500.066833 
	C216.062454,498.215698 200.635834,494.709259 185.411148,490.899811 
	C168.249161,486.605652 152.329193,478.872772 136.930145,470.267120 
	C114.720299,457.855316 95.222359,441.966003 77.834221,423.394043 
	C64.718636,409.385529 53.608395,393.969513 44.128395,377.325287 
	C30.609423,353.589813 21.524971,328.250549 16.653906,301.395630 
	C12.662170,279.388611 12.084834,257.264282 13.850163,234.971588 
	C15.219211,217.683121 18.634624,200.918442 23.654465,184.345200 
	C29.617746,164.657135 38.276154,146.298141 48.794212,128.685837 
	C61.449390,107.494980 77.580704,89.161217 95.862976,72.895691 
	C118.247246,52.980656 143.539795,37.215508 172.064743,27.728071 
	C189.132965,22.051153 206.738907,17.401056 224.462524,14.441766 
	C244.229004,11.141377 264.440918,10.403476 284.410675,13.941717 
	C299.877838,16.682192 315.675812,18.668467 330.529114,23.461725 
	C346.869080,28.734749 362.763031,35.943115 378.011719,43.914326 
	C400.546936,55.694572 419.805206,72.052383 437.185791,90.630424 
	C450.294281,104.642059 461.410431,120.053116 470.887177,136.701828 
	C484.400665,160.442245 493.477081,185.783356 498.355072,212.634338 
	C502.352966,234.640869 502.916168,256.767212 501.147888,279.059875 
	C499.776581,296.348175 496.362091,313.112640 491.335114,329.684540 
	C485.363770,349.369415 476.714294,367.730316 466.188904,385.340485 
	C453.525696,406.527405 437.394897,424.858948 419.115265,441.127228 
	C396.603424,461.162048 371.122955,476.933777 342.445435,486.477478 
	C325.536072,492.104797 307.932892,495.717743 290.527405,499.741943 
	C285.106537,500.995239 279.311218,500.628876 273.219177,501.011719 
M268.124023,134.761353 
	C231.059967,140.940521 203.222458,160.846481 186.430695,193.982529 
	C166.617859,233.080292 165.413513,274.178772 181.347580,314.935944 
	C191.992004,342.163025 211.647919,361.934509 239.186066,372.429626 
	C273.097992,385.353851 306.862000,381.513916 340.103882,369.008301 
	C341.157532,368.611908 342.368378,367.007324 342.435577,365.900970 
	C342.703033,361.498322 342.545746,357.069885 342.545746,352.276672 
	C341.359253,352.678284 340.560669,352.861786 339.838501,353.205719 
	C320.458374,362.436127 299.842926,365.891815 278.649780,364.820343 
	C239.697815,362.850952 212.126801,343.666473 196.839188,307.746277 
	C187.532166,285.878265 186.664505,262.765869 189.435837,239.495178 
	C192.029602,217.715302 199.503998,197.807114 214.111130,181.077942 
	C239.569687,151.920883 272.395752,144.212570 309.162201,149.662292 
	C320.370544,151.323669 331.247284,155.222321 342.600769,158.181000 
	C342.600769,154.127991 342.847534,149.515533 342.456909,144.957672 
	C342.332733,143.508484 340.777374,141.396637 339.428955,140.954620 
	C316.456787,133.424271 292.975922,131.045914 268.124023,134.761353 
z"/>
<path fill="#FBFBFB" opacity="1.000000" stroke="none" 
	d="
M268.552917,134.669983 
	C292.975922,131.045914 316.456787,133.424271 339.428955,140.954620 
	C340.777374,141.396637 342.332733,143.508484 342.456909,144.957672 
	C342.847534,149.515533 342.600769,154.127991 342.600769,158.181000 
	C331.247284,155.222321 320.370544,151.323669 309.162201,149.662292 
	C272.395752,144.212570 239.569687,151.920883 214.111130,181.077942 
	C199.503998,197.807114 192.029602,217.715302 189.435837,239.495178 
	C186.664505,262.765869 187.532166,285.878265 196.839188,307.746277 
	C212.126801,343.666473 239.697815,362.850952 278.649780,364.820343 
	C299.842926,365.891815 320.458374,362.436127 339.838501,353.205719 
	C340.560669,352.861786 341.359253,352.678284 342.545746,352.276672 
	C342.545746,357.069885 342.703033,361.498322 342.435577,365.900970 
	C342.368378,367.007324 341.157532,368.611908 340.103882,369.008301 
	C306.862000,381.513916 273.097992,385.353851 239.186066,372.429626 
	C211.647919,361.934509 191.992004,342.163025 181.347580,314.935944 
	C165.413513,274.178772 166.617859,233.080292 186.430695,193.982529 
	C203.222458,160.846481 231.059967,140.940521 268.552917,134.669983 
z"/>
</svg>