<svg version="1.1" id="Layer_1" xmlns="http://www.w3.org/2000/svg" xmlns:xlink="http://www.w3.org/1999/xlink" x="0px" y="0px"
	 width="100%" viewBox="0 0 512 512" enable-background="new 0 0 512 512" xml:space="preserve">
<path fill="#000000" opacity="0.000000" stroke="none"
	d="
M308.000000,513.000000 
	C205.358261,513.000000 103.216515,513.000000 1.037387,513.000000 
	C1.037387,342.399902 1.037387,171.799789 1.037387,1.099841 
	C171.558426,1.099841 342.116913,1.099841 512.837708,1.099841 
	C512.837708,171.666534 512.837708,342.333252 512.837708,513.000000 
	C444.799774,513.000000 376.649872,513.000000 308.000000,513.000000 
M21.042374,321.360229 
	C23.371183,328.448364 25.539604,335.593994 28.056917,342.614563 
	C38.265415,371.085144 53.726460,396.565094 73.767807,419.039093 
	C91.530418,438.957733 111.922913,455.844269 135.246872,469.257874 
	C170.513031,489.539429 208.491074,500.063904 248.868713,501.795624 
	C262.563202,502.382935 276.461548,501.457123 290.084045,499.757996 
	C313.037842,496.895020 335.265778,490.686005 356.417938,481.199768 
	C399.109039,462.053772 433.721863,433.097534 460.214844,394.529297 
	C475.384735,372.445068 486.920776,348.496918 493.423828,322.542786 
	C497.429474,306.555939 500.172150,290.100433 501.685150,273.689697 
	C502.882141,260.706329 501.507538,247.464188 500.981171,234.348770 
	C500.176361,214.296432 495.305420,194.999893 488.827911,176.161896 
	C478.511902,146.160614 462.706879,119.131577 441.703247,95.422493 
	C422.864319,74.156921 401.075684,56.265259 376.049988,42.519306 
	C342.007904,23.820883 305.456940,13.823244 266.790283,12.215702 
	C252.762039,11.632486 238.530090,12.551032 224.578629,14.289460 
	C201.793365,17.128628 179.722839,23.325985 158.725143,32.731575 
	C115.867531,51.928970 81.139313,80.998100 54.593445,119.752441 
	C39.450005,141.860367 27.990606,165.840042 21.459612,191.777481 
	C17.475863,207.598679 14.777522,223.901093 13.316792,240.150528 
	C12.134273,253.305145 12.888126,266.780334 14.201166,279.972168 
	C15.556200,293.585938 18.624481,307.029175 21.042374,321.360229 
z"/>
<path fill="#363636" opacity="0.000000" stroke="none"
	d="
M20.992802,320.953613 
	C18.624481,307.029175 15.556200,293.585938 14.201166,279.972168 
	C12.888126,266.780334 12.134273,253.305145 13.316792,240.150528 
	C14.777522,223.901093 17.475863,207.598679 21.459612,191.777481 
	C27.990606,165.840042 39.450005,141.860367 54.593445,119.752441 
	C81.139313,80.998100 115.867531,51.928970 158.725143,32.731575 
	C179.722839,23.325985 201.793365,17.128628 224.578629,14.289460 
	C238.530090,12.551032 252.762039,11.632486 266.790283,12.215702 
	C305.456940,13.823244 342.007904,23.820883 376.049988,42.519306 
	C401.075684,56.265259 422.864319,74.156921 441.703247,95.422493 
	C462.706879,119.131577 478.511902,146.160614 488.827911,176.161896 
	C495.305420,194.999893 500.176361,214.296432 500.981171,234.348770 
	C501.507538,247.464188 502.882141,260.706329 501.685150,273.689697 
	C500.172150,290.100433 497.429474,306.555939 493.423828,322.542786 
	C486.920776,348.496918 475.384735,372.445068 460.214844,394.529297 
	C433.721863,433.097534 399.109039,462.053772 356.417938,481.199768 
	C335.265778,490.686005 313.037842,496.895020 290.084045,499.757996 
	C276.461548,501.457123 262.563202,502.382935 248.868713,501.795624 
	C208.491074,500.063904 170.513031,489.539429 135.246872,469.257874 
	C111.922913,455.844269 91.530418,438.957733 73.767807,419.039093 
	C53.726460,396.565094 38.265415,371.085144 28.056917,342.614563 
	C25.539604,335.593994 23.371183,328.448364 20.992802,320.953613 
M290.500000,371.000000 
	C320.153992,371.000000 349.807983,370.999207 379.461975,371.000397 
	C391.695099,371.000885 403.257263,360.906708 403.142853,347.653229 
	C402.705597,297.011993 402.646118,246.361206 403.204041,195.722366 
	C403.333191,184.001434 392.479004,171.709763 379.452454,171.842514 
	C337.807922,172.266846 296.156158,172.045013 254.507965,171.878418 
	C252.219040,171.869278 249.419373,170.646515 247.740112,169.056442 
	C239.760254,161.500397 232.195267,153.506226 224.215729,145.949829 
	C222.535690,144.358887 219.740280,143.141541 217.448380,143.124130 
	C191.627579,142.928024 165.804611,142.961823 139.982574,143.044052 
	C136.400223,143.055466 132.813171,143.602753 129.239670,144.003326 
	C119.568504,145.087494 110.864113,155.238861 110.906158,165.413162 
	C111.158798,226.552658 111.211624,287.694702 110.870049,348.833344 
	C110.806122,360.276489 123.253052,371.133392 133.067245,371.095276 
	C185.210846,370.892670 237.355621,371.000000 290.500000,371.000000 
z"/>
<path fill="#363636" opacity="1.000000" stroke="none"
	d="
M290.000000,371.000000 
	C237.355621,371.000000 185.210846,370.892670 133.067245,371.095276 
	C123.253052,371.133392 110.806122,360.276489 110.870049,348.833344 
	C111.211624,287.694702 111.158798,226.552658 110.906158,165.413162 
	C110.864113,155.238861 119.568504,145.087494 129.239670,144.003326 
	C132.813171,143.602753 136.400223,143.055466 139.982574,143.044052 
	C165.804611,142.961823 191.627579,142.928024 217.448380,143.124130 
	C219.740280,143.141541 222.535690,144.358887 224.215729,145.949829 
	C232.195267,153.506226 239.760254,161.500397 247.740112,169.056442 
	C249.419373,170.646515 252.219040,171.869278 254.507965,171.878418 
	C296.156158,172.045013 337.807922,172.266846 379.452454,171.842514 
	C392.479004,171.709763 403.333191,184.001434 403.204041,195.722366 
	C402.646118,246.361206 402.705597,297.011993 403.142853,347.653229 
	C403.257263,360.906708 391.695099,371.000885 379.461975,371.000397 
	C349.807983,370.999207 320.153992,371.000000 290.000000,371.000000 
M390.557159,350.962952 
	C390.666504,350.650208 390.775879,350.337494 391.024323,349.093445 
	C391.028107,320.827972 391.053619,292.562500 391.028992,264.297058 
	C391.008270,240.524536 390.929199,216.752045 390.925598,192.437332 
	C390.628082,192.249863 390.330536,192.062408 390.005096,191.132004 
	C389.162964,186.777542 386.006317,185.395325 381.949188,184.464539 
	C381.644745,184.349426 381.340271,184.234329 380.107239,183.951370 
	C361.061646,184.007858 342.016022,184.064362 322.455872,184.078445 
	C322.358002,184.370331 322.260132,184.662201 322.020233,185.887665 
	C321.974121,196.883011 321.928009,207.878357 320.961365,218.937881 
	C309.717041,218.937881 298.472748,218.937881 286.837128,218.937881 
	C286.837128,207.205505 286.837128,196.083008 286.913666,184.449234 
	C286.620544,184.339767 286.327423,184.230301 285.106018,183.952271 
	C273.130402,183.945267 261.151886,184.070602 249.181839,183.808990 
	C247.032181,183.761993 244.435440,182.623840 242.867874,181.127533 
	C235.051773,173.666779 227.558197,165.869186 219.820801,158.323746 
	C218.656174,157.188034 216.807358,156.104340 215.269775,156.096985 
	C187.327133,155.963364 159.383255,155.920029 131.440964,156.085632 
	C127.443687,156.109329 124.226967,158.158173 123.442825,163.037048 
	C123.333473,163.349777 123.224129,163.662506 122.975685,164.906555 
	C122.971893,208.484390 122.953293,252.062241 122.971390,295.640076 
	C122.978920,313.766327 123.064705,331.892578 123.066544,350.564880 
	C123.366219,350.753052 123.665886,350.941223 123.990509,351.876038 
	C125.182030,356.734283 128.680511,358.018951 133.190399,358.016571 
	C182.931656,357.990265 232.672913,358.002075 282.414185,357.989594 
	C283.851685,357.989227 285.289154,357.834808 287.180023,357.726166 
	C287.180023,346.373566 287.180023,335.327271 287.180023,323.893188 
	C298.778534,323.893188 309.901733,323.893188 321.493500,324.012848 
	C321.493500,324.012848 321.962341,324.131592 321.995392,325.051880 
	C321.995392,335.965088 321.995392,346.878265 321.995392,358.002380 
	C342.621979,358.002380 362.582275,358.107117 382.539703,357.914398 
	C386.552612,357.875641 389.755219,355.835510 390.557159,350.962952 
z"/>
<path fill="#363636" opacity="0.000000" stroke="none"
	d="
M123.962563,162.873444 
	C124.226967,158.158173 127.443687,156.109329 131.440964,156.085632 
	C159.383255,155.920029 187.327133,155.963364 215.269775,156.096985 
	C216.807358,156.104340 218.656174,157.188034 219.820801,158.323746 
	C227.558197,165.869186 235.051773,173.666779 242.867874,181.127533 
	C244.435440,182.623840 247.032181,183.761993 249.181839,183.808990 
	C261.151886,184.070602 273.130402,183.945267 285.655090,184.217529 
	C286.373047,184.697784 286.584045,184.857025 286.837128,184.960526 
	C286.837128,196.083008 286.837128,207.205505 286.837128,218.937881 
	C298.472748,218.937881 309.717041,218.937881 321.499725,218.994537 
	C322.038086,219.051178 322.193939,219.228943 322.150818,219.453674 
	C322.107666,219.678421 322.037445,220.131760 322.020996,220.591904 
	C321.983032,232.054657 321.961487,243.057266 321.969971,254.029922 
	C322.000000,253.999969 322.059875,253.939941 321.588165,253.967941 
	C309.847351,253.995941 298.578247,253.995941 287.316345,253.995941 
	C287.316345,265.965485 287.316345,277.359467 287.316345,288.934692 
	C299.107208,288.934692 310.583038,288.934692 322.033051,289.406982 
	C322.045135,300.878204 322.083008,311.877075 322.042053,322.964050 
	C321.963257,323.052155 321.806641,323.229187 321.630981,323.275513 
	C321.238983,323.457367 321.095520,323.647797 321.024902,323.893188 
	C309.901733,323.893188 298.778534,323.893188 287.180023,323.893188 
	C287.180023,335.327271 287.180023,346.373566 287.180023,357.726166 
	C285.289154,357.834808 283.851685,357.989227 282.414185,357.989594 
	C232.672913,358.002075 182.931656,357.990265 133.190399,358.016571 
	C128.680511,358.018951 125.182030,356.734283 123.875946,351.287598 
	C123.620811,350.401245 123.405319,350.174438 123.114914,350.018829 
	C123.064705,331.892578 122.978920,313.766327 122.971390,295.640076 
	C122.953293,252.062241 122.971893,208.484390 123.234825,164.299515 
	C123.693100,163.444046 123.849304,163.171036 123.962563,162.873444 
z"/>
<path fill="#363636" opacity="1.000000" stroke="none"
	d="
M321.588135,253.967941 
	C322.046783,264.990997 322.033691,276.042023 322.016846,287.814148 
	C321.987427,288.711365 321.961731,288.887512 321.966919,289.031616 
	C321.997772,288.999542 322.058838,288.934692 322.058838,288.934692 
	C310.583038,288.934692 299.107208,288.934692 287.316345,288.934692 
	C287.316345,277.359467 287.316345,265.965485 287.316345,253.995941 
	C298.578247,253.995941 309.847351,253.995941 321.588135,253.967941 
z"/>
<path fill="#363636" opacity="1.000000" stroke="none"
	d="
M322.979492,288.852386 
	C334.096252,288.852386 345.212982,288.852386 356.664032,288.852386 
	C356.664032,300.267822 356.664032,311.303528 356.664032,322.938141 
	C345.516174,322.938141 334.278503,322.938141 322.580841,322.907043 
	C322.083008,311.877075 322.045135,300.878204 322.033051,289.406982 
	C322.058838,288.934692 321.997772,288.999542 322.230896,288.994324 
	C322.635864,288.943481 322.807678,288.897919 322.979492,288.852386 
z"/>
<path fill="#363636" opacity="1.000000" stroke="none"
	d="
M322.975037,219.893204 
	C334.105103,219.893204 345.235138,219.893204 356.681702,219.893204 
	C356.681702,231.358002 356.681702,242.403534 356.681702,254.007111 
	C345.408936,254.007111 334.146301,254.007111 322.411804,254.033493 
	C321.961487,243.057266 321.983032,232.054657 322.255432,220.532455 
	C322.506317,220.012863 322.975037,219.893204 322.975037,219.893204 
z"/>
</svg>