<svg version="1.1" id="Layer_1" xmlns="http://www.w3.org/2000/svg" xmlns:xlink="http://www.w3.org/1999/xlink" x="0px" y="0px"
	 width="100%" viewBox="0 0 512 512" enable-background="new 0 0 512 512" xml:space="preserve">
<path fill="#000000" opacity="0.000000" stroke="none"
	d="
M308.000000,513.000000 
	C205.358261,513.000000 103.216515,513.000000 1.037387,513.000000 
	C1.037387,342.399902 1.037387,171.799789 1.037387,1.099841 
	C171.558426,1.099841 342.116913,1.099841 512.837708,1.099841 
	C512.837708,171.666534 512.837708,342.333252 512.837708,513.000000 
	C444.799774,513.000000 376.649872,513.000000 308.000000,513.000000 
M168.376511,485.148560 
	C188.295288,492.787903 208.809891,497.661926 230.045227,500.249573 
	C250.333679,502.721863 270.493622,502.335419 290.580170,499.715546 
	C308.685120,497.354126 326.350891,492.791779 343.536926,486.347015 
	C371.549744,475.842194 396.970184,460.902466 419.205750,441.062073 
	C445.641235,417.474213 466.624695,389.681396 481.116974,357.039154 
	C492.908173,330.480774 500.019592,302.806274 501.771637,273.964050 
	C502.917633,255.097916 502.257568,236.151031 499.176849,217.316147 
	C491.603607,171.014999 472.239319,130.253677 441.432617,95.167274 
	C416.527740,66.802582 386.444550,45.177074 351.389557,30.714304 
	C321.247314,18.278425 289.827789,11.937705 257.301849,12.199723 
	C243.281311,12.312668 229.185837,13.987617 215.286285,16.046089 
	C183.799454,20.709167 154.824570,32.483349 127.828087,49.131828 
	C106.018967,62.581314 87.146095,79.481125 70.502808,98.944496 
	C53.736885,118.551262 40.530659,140.292282 30.830259,164.172562 
	C21.591856,186.915527 15.731927,210.416107 13.814914,234.987732 
	C12.282354,254.631531 12.352677,274.215057 15.274348,293.619507 
	C19.632900,322.567108 28.911011,349.937592 43.196648,375.654846 
	C57.824360,401.987946 76.797829,424.580658 99.576256,444.117737 
	C119.942429,461.585846 142.744446,474.989502 168.376511,485.148560 
z"/>
<path fill="#363636" opacity="0.000000" stroke="none"
	d="
M168.016846,485.006165 
	C142.744446,474.989502 119.942429,461.585846 99.576256,444.117737 
	C76.797829,424.580658 57.824360,401.987946 43.196648,375.654846 
	C28.911011,349.937592 19.632900,322.567108 15.274348,293.619507 
	C12.352677,274.215057 12.282354,254.631531 13.814914,234.987732 
	C15.731927,210.416107 21.591856,186.915527 30.830259,164.172562 
	C40.530659,140.292282 53.736885,118.551262 70.502808,98.944496 
	C87.146095,79.481125 106.018967,62.581314 127.828087,49.131828 
	C154.824570,32.483349 183.799454,20.709167 215.286285,16.046089 
	C229.185837,13.987617 243.281311,12.312668 257.301849,12.199723 
	C289.827789,11.937705 321.247314,18.278425 351.389557,30.714304 
	C386.444550,45.177074 416.527740,66.802582 441.432617,95.167274 
	C472.239319,130.253677 491.603607,171.014999 499.176849,217.316147 
	C502.257568,236.151031 502.917633,255.097916 501.771637,273.964050 
	C500.019592,302.806274 492.908173,330.480774 481.116974,357.039154 
	C466.624695,389.681396 445.641235,417.474213 419.205750,441.062073 
	C396.970184,460.902466 371.549744,475.842194 343.536926,486.347015 
	C326.350891,492.791779 308.685120,497.354126 290.580170,499.715546 
	C270.493622,502.335419 250.333679,502.721863 230.045227,500.249573 
	C208.809891,497.661926 188.295288,492.787903 168.016846,485.006165 
M178.402222,360.002899 
	C186.595825,364.813751 194.752441,369.689026 202.991364,374.420959 
	C216.807205,382.355957 231.068344,389.597931 244.384445,398.291992 
	C253.361908,404.153351 261.689362,402.796753 269.669525,398.493866 
	C285.944672,389.718414 301.690887,379.965057 317.699432,370.691223 
	C337.189117,359.400696 356.855225,348.407043 376.168701,336.824188 
	C382.860199,332.811066 386.931061,326.233154 386.951935,318.107208 
	C387.056885,277.293671 387.084686,236.479324 386.893707,195.666428 
	C386.869629,190.520737 385.515442,185.168457 381.063873,181.773254 
	C376.335297,178.166763 371.349945,174.845200 366.234467,171.807053 
	C348.644806,161.360245 330.953491,151.084473 313.292603,140.757706 
	C298.833527,132.303116 284.379578,123.839531 269.890076,115.437279 
	C262.147552,110.947495 253.873322,110.467445 246.126572,114.595970 
	C232.643326,121.781662 219.525070,129.656143 206.301071,137.323425 
	C185.413620,149.434006 164.635941,161.735886 143.667252,173.703522 
	C134.634796,178.858688 127.077972,184.925842 127.045258,196.324005 
	C126.929092,236.804291 126.960045,277.285187 127.032768,317.765686 
	C127.047737,326.096466 131.139847,332.655792 137.978989,336.858826 
	C151.007263,344.865448 164.404572,352.271545 178.402222,360.002899 
z"/>
<path fill="#363636" opacity="1.000000" stroke="none"
	d="
M178.025452,359.964935 
	C164.404572,352.271545 151.007263,344.865448 137.978989,336.858826 
	C131.139847,332.655792 127.047737,326.096466 127.032768,317.765686 
	C126.960045,277.285187 126.929092,236.804291 127.045258,196.324005 
	C127.077972,184.925842 134.634796,178.858688 143.667252,173.703522 
	C164.635941,161.735886 185.413620,149.434006 206.301071,137.323425 
	C219.525070,129.656143 232.643326,121.781662 246.126572,114.595970 
	C253.873322,110.467445 262.147552,110.947495 269.890076,115.437279 
	C284.379578,123.839531 298.833527,132.303116 313.292603,140.757706 
	C330.953491,151.084473 348.644806,161.360245 366.234467,171.807053 
	C371.349945,174.845200 376.335297,178.166763 381.063873,181.773254 
	C385.515442,185.168457 386.869629,190.520737 386.893707,195.666428 
	C387.084686,236.479324 387.056885,277.293671 386.951935,318.107208 
	C386.931061,326.233154 382.860199,332.811066 376.168701,336.824188 
	C356.855225,348.407043 337.189117,359.400696 317.699432,370.691223 
	C301.690887,379.965057 285.944672,389.718414 269.669525,398.493866 
	C261.689362,402.796753 253.361908,404.153351 244.384445,398.291992 
	C231.068344,389.597931 216.807205,382.355957 202.991364,374.420959 
	C194.752441,369.689026 186.595825,364.813751 178.025452,359.964935 
M250.934326,260.451813 
	C250.632919,260.350403 250.331497,260.249023 249.369461,259.860901 
	C248.912720,259.379669 248.538467,258.755096 247.987305,258.438049 
	C230.020416,248.102707 212.014694,237.834793 194.062820,227.473541 
	C181.949966,220.482407 169.967590,213.263733 157.811478,206.349655 
	C152.000412,203.044479 145.921265,200.210648 139.451874,197.085373 
	C139.342056,197.378571 139.232239,197.671768 138.954712,198.893494 
	C138.947693,213.018539 138.915344,227.143631 138.939163,241.268616 
	C138.982315,266.854980 139.058945,292.441254 139.089981,318.563385 
	C139.386200,318.742981 139.682419,318.922577 139.997864,319.854065 
	C141.191116,321.888367 141.887131,324.727448 143.660355,325.823059 
	C153.337738,331.802216 163.284866,337.344238 173.130112,343.052338 
	C185.356674,350.141174 197.545807,357.295074 209.803558,364.329498 
	C223.149765,371.988617 236.556046,379.543060 250.170990,387.685944 
	C250.399536,387.134308 250.628067,386.582672 251.014282,385.101532 
	C250.967255,343.728241 250.920212,302.354919 250.934326,260.451813 
M263.454071,260.075104 
	C263.346680,260.374481 263.239319,260.673859 262.984222,261.903687 
	C262.977722,275.862152 262.947876,289.820648 262.969635,303.779083 
	C263.012390,331.193146 263.083832,358.607117 263.014374,386.601440 
	C263.168549,386.973969 263.322693,387.346527 263.476868,387.719055 
	C263.673859,387.525116 263.870850,387.331146 264.798065,387.025696 
	C272.316742,382.749481 279.865662,378.525452 287.347443,374.185699 
	C301.095581,366.211243 314.807129,358.173645 328.528412,350.152924 
	C342.255188,342.129089 356.059937,334.231750 369.608826,325.917755 
	C371.691345,324.639923 372.582642,321.420807 374.535828,318.948669 
	C374.650269,318.644470 374.764709,318.340271 375.046173,317.107300 
	C375.052887,302.982178 375.084808,288.857025 375.060883,274.731934 
	C375.017548,249.145462 374.940948,223.559052 374.987000,197.396255 
	C374.830536,197.030197 374.674042,196.664124 374.517578,196.298065 
	C374.322296,196.491119 374.127045,196.684174 373.198975,196.984497 
	C358.813599,205.118271 344.389435,213.184326 330.053802,221.404877 
	C315.699036,229.636398 301.415680,237.993073 287.134521,246.352142 
	C279.379517,250.891296 271.694183,255.549515 263.454071,260.075104 
M246.985947,128.472473 
	C236.317551,134.456467 225.601700,140.357727 214.991745,146.443573 
	C198.519775,155.891876 182.104233,165.438980 165.697495,175.000320 
	C159.428024,178.653946 153.248672,182.462219 146.614792,186.448486 
	C147.822205,186.940613 148.294281,187.072418 148.705750,187.309448 
	C168.375763,198.640945 188.082870,209.908966 207.692169,221.344727 
	C222.708115,230.101700 237.604111,239.064514 252.542908,247.953506 
	C255.481430,249.702011 258.264984,249.941772 261.346008,248.048523 
	C267.517120,244.256454 273.819885,240.677795 280.084747,237.039322 
	C304.852417,222.654785 329.639832,208.304214 354.384766,193.880692 
	C358.470795,191.498993 362.381012,188.815582 366.869659,185.954727 
	C360.482452,182.258804 354.922455,179.044968 349.365723,175.825516 
	C333.913818,166.873032 318.482269,157.885223 303.006104,148.974899 
	C291.010132,142.068268 278.757019,135.582321 267.010162,128.278931 
	C260.236389,124.067459 254.122772,123.520866 246.985947,128.472473 
z"/>
<path fill="#363636" opacity="0.000000" stroke="none"
	d="
M263.143402,386.021149 
	C263.083832,358.607117 263.012390,331.193146 262.969635,303.779083 
	C262.947876,289.820648 262.977722,275.862152 263.222900,261.328125 
	C263.668365,260.583099 263.840332,260.383575 263.977417,260.154022 
	C271.694183,255.549515 279.379517,250.891296 287.134521,246.352142 
	C301.415680,237.993073 315.699036,229.636398 330.053802,221.404877 
	C344.389435,213.184326 358.813599,205.118271 373.700012,197.134201 
	C374.365204,197.574005 374.590942,197.803574 374.878265,197.972610 
	C374.940948,223.559052 375.017548,249.145462 375.060883,274.731934 
	C375.084808,288.857025 375.052887,302.982178 374.787994,317.719971 
	C374.382629,318.602173 374.214294,318.857788 374.024841,319.099518 
	C372.582642,321.420807 371.691345,324.639923 369.608826,325.917755 
	C356.059937,334.231750 342.255188,342.129089 328.528412,350.152924 
	C314.807129,358.173645 301.095581,366.211243 287.347443,374.185699 
	C279.865662,378.525452 272.316742,382.749481 264.300079,386.878052 
	C263.622131,386.457214 263.402557,386.220795 263.143402,386.021149 
z"/>
<path fill="#363636" opacity="0.000000" stroke="none"
	d="
M139.121597,318.027557 
	C139.058945,292.441254 138.982315,266.854980 138.939163,241.268616 
	C138.915344,227.143631 138.947693,213.018539 139.209473,198.330872 
	C139.673599,197.602051 139.840027,197.400406 139.963531,197.163330 
	C145.921265,200.210648 152.000412,203.044479 157.811478,206.349655 
	C169.967590,213.263733 181.949966,220.482407 194.062820,227.473541 
	C212.014694,237.834793 230.020416,248.102707 247.987305,258.438049 
	C248.538467,258.755096 248.912720,259.379669 249.812958,260.169250 
	C250.429932,260.684875 250.635498,260.852875 250.873184,260.981628 
	C250.920212,302.354919 250.967255,343.728241 250.755951,385.728546 
	C250.287048,386.601379 250.099899,386.863892 249.936157,387.143097 
	C236.556046,379.543060 223.149765,371.988617 209.803558,364.329498 
	C197.545807,357.295074 185.356674,350.141174 173.130112,343.052338 
	C163.284866,337.344238 153.337738,331.802216 143.660355,325.823059 
	C141.887131,324.727448 141.191116,321.888367 139.852600,319.290344 
	C139.586792,318.431030 139.391541,318.197998 139.121597,318.027557 
z"/>
<path fill="#363636" opacity="0.000000" stroke="none"
	d="
M247.269440,128.205078 
	C254.122772,123.520866 260.236389,124.067459 267.010162,128.278931 
	C278.757019,135.582321 291.010132,142.068268 303.006104,148.974899 
	C318.482269,157.885223 333.913818,166.873032 349.365723,175.825516 
	C354.922455,179.044968 360.482452,182.258804 366.869659,185.954727 
	C362.381012,188.815582 358.470795,191.498993 354.384766,193.880692 
	C329.639832,208.304214 304.852417,222.654785 280.084747,237.039322 
	C273.819885,240.677795 267.517120,244.256454 261.346008,248.048523 
	C258.264984,249.941772 255.481430,249.702011 252.542908,247.953506 
	C237.604111,239.064514 222.708115,230.101700 207.692169,221.344727 
	C188.082870,209.908966 168.375763,198.640945 148.705750,187.309448 
	C148.294281,187.072418 147.822205,186.940613 146.614792,186.448486 
	C153.248672,182.462219 159.428024,178.653946 165.697495,175.000320 
	C182.104233,165.438980 198.519775,155.891876 214.991745,146.443573 
	C225.601700,140.357727 236.317551,134.456467 247.269440,128.205078 
z"/>
</svg>