<svg version="1.1" id="Layer_1" xmlns="http://www.w3.org/2000/svg" xmlns:xlink="http://www.w3.org/1999/xlink" x="0px" y="0px"
	 width="100%" viewBox="0 0 512 512" enable-background="new 0 0 512 512" xml:space="preserve">
<path fill="#000000" opacity="0.000000" stroke="none"
	d="
M308.000000,513.000000 
	C205.358261,513.000000 103.216515,513.000000 1.037387,513.000000 
	C1.037387,342.399902 1.037387,171.799789 1.037387,1.099841 
	C171.558426,1.099841 342.116913,1.099841 512.837708,1.099841 
	C512.837708,171.666534 512.837708,342.333252 512.837708,513.000000 
	C444.799774,513.000000 376.649872,513.000000 308.000000,513.000000 
M274.626312,501.001617 
	C284.485504,499.810730 294.438690,499.129456 304.185913,497.331604 
	C331.385590,492.314697 356.831238,482.474213 380.811584,468.660309 
	C406.627289,453.789124 428.612274,434.432861 447.513733,411.619659 
	C461.550842,394.677521 472.803467,375.910553 481.725861,355.715057 
	C493.392700,329.307617 500.372894,301.700104 501.741211,272.985138 
	C502.504791,256.961151 501.319153,240.760162 499.910217,224.735794 
	C497.602325,198.487061 489.390442,173.747421 477.977631,150.135147 
	C465.056030,123.401260 447.608856,99.941437 426.053925,79.414032 
	C410.048126,64.171219 392.395538,51.371662 372.952301,41.012047 
	C345.245911,26.249691 315.827179,17.257170 284.532928,13.698421 
	C264.393524,11.408188 244.295456,11.116713 224.514740,14.439168 
	C206.776825,17.418505 189.150848,22.044601 172.068619,27.727152 
	C143.528091,37.221394 118.221870,52.994621 95.826668,72.928246 
	C77.536949,89.207649 61.465977,107.594429 48.724621,128.744217 
	C38.640160,145.483765 30.257589,162.976761 24.372555,181.576828 
	C18.859489,199.001251 15.178077,216.795639 13.785305,235.134064 
	C12.292908,254.784286 12.359718,274.371796 15.297485,293.778625 
	C19.705688,322.899139 29.146427,350.380707 43.512760,376.257141 
	C58.822365,403.832550 78.888977,427.383820 103.090729,447.220581 
	C128.526962,468.069214 157.264130,483.221008 189.076584,492.128754 
	C216.764709,499.881561 244.873123,503.872162 274.626312,501.001617 
z"/>
<path fill="#363636" opacity="1.000000" stroke="none" 
	d="
M274.157074,501.004272 
	C244.873123,503.872162 216.764709,499.881561 189.076584,492.128754 
	C157.264130,483.221008 128.526962,468.069214 103.090729,447.220581 
	C78.888977,427.383820 58.822365,403.832550 43.512760,376.257141 
	C29.146427,350.380707 19.705688,322.899139 15.297485,293.778625 
	C12.359718,274.371796 12.292908,254.784286 13.785305,235.134064 
	C15.178077,216.795639 18.859489,199.001251 24.372555,181.576828 
	C30.257589,162.976761 38.640160,145.483765 48.724621,128.744217 
	C61.465977,107.594429 77.536949,89.207649 95.826668,72.928246 
	C118.221870,52.994621 143.528091,37.221394 172.068619,27.727152 
	C189.150848,22.044601 206.776825,17.418505 224.514740,14.439168 
	C244.295456,11.116713 264.393524,11.408188 284.532928,13.698421 
	C315.827179,17.257170 345.245911,26.249691 372.952301,41.012047 
	C392.395538,51.371662 410.048126,64.171219 426.053925,79.414032 
	C447.608856,99.941437 465.056030,123.401260 477.977631,150.135147 
	C489.390442,173.747421 497.602325,198.487061 499.910217,224.735794 
	C501.319153,240.760162 502.504791,256.961151 501.741211,272.985138 
	C500.372894,301.700104 493.392700,329.307617 481.725861,355.715057 
	C472.803467,375.910553 461.550842,394.677521 447.513733,411.619659 
	C428.612274,434.432861 406.627289,453.789124 380.811584,468.660309 
	C356.831238,482.474213 331.385590,492.314697 304.185913,497.331604 
	C294.438690,499.129456 284.485504,499.810730 274.157074,501.004272 
M201.686951,336.499756 
	C201.686951,349.576660 201.686951,362.653564 201.686951,375.761719 
	C207.499725,375.761719 212.595230,375.761719 218.150864,375.761719 
	C218.150864,338.791046 218.150864,302.055115 218.150864,264.733582 
	C247.655365,264.733582 276.700409,264.733582 305.681244,264.733582 
	C305.681244,259.377014 305.681244,254.615494 305.681244,249.484512 
	C276.424774,249.484512 247.485077,249.484512 218.277603,249.484512 
	C218.277603,217.182068 218.277603,185.262115 218.277603,152.344086 
	C249.875824,152.344086 281.356354,152.344086 312.630432,152.344086 
	C312.630432,146.603226 312.630432,141.865829 312.630432,137.298676 
	C275.497223,137.298676 238.734177,137.298676 201.686951,137.298676 
	C201.686951,203.564529 201.686951,269.532135 201.686951,336.499756 
z"/>
<path fill="#EEECE9" opacity="1.000000" stroke="none" 
	d="
M201.686951,335.999756 
	C201.686951,269.532135 201.686951,203.564529 201.686951,137.298676 
	C238.734177,137.298676 275.497223,137.298676 312.630432,137.298676 
	C312.630432,141.865829 312.630432,146.603226 312.630432,152.344086 
	C281.356354,152.344086 249.875824,152.344086 218.277603,152.344086 
	C218.277603,185.262115 218.277603,217.182068 218.277603,249.484512 
	C247.485077,249.484512 276.424774,249.484512 305.681244,249.484512 
	C305.681244,254.615494 305.681244,259.377014 305.681244,264.733582 
	C276.700409,264.733582 247.655365,264.733582 218.150864,264.733582 
	C218.150864,302.055115 218.150864,338.791046 218.150864,375.761719 
	C212.595230,375.761719 207.499725,375.761719 201.686951,375.761719 
	C201.686951,362.653564 201.686951,349.576660 201.686951,335.999756 
z"/>
</svg>